<?xml version="1.0" encoding="UTF-8"?><svg id="a" xmlns="http://www.w3.org/2000/svg" width="350" height="350" xmlns:xlink="http://www.w3.org/1999/xlink" viewBox="0 0 350 350"><defs><linearGradient id="b" x1="349.5" y1="352" x2=".5" y2="2" gradientTransform="translate(0 352) scale(1 -1)" gradientUnits="userSpaceOnUse"><stop offset="0" stop-color="#000"/><stop offset="1" stop-color="#70007f"/></linearGradient></defs><path d="M297,.5H53C23.73.5,0,24.16,0,53.35v243.31c0,29.19,23.73,52.85,53,52.85h244c29.27,0,53-23.66,53-52.85V53.35c0-29.19-23.73-52.85-53-52.85Z" fill="url(#b)"/><rect x="102.5" y="218.47" width="103.48" height="51.18" fill="#fff"/><circle cx="245.86" cy="257.82" r="10.25" fill="none" stroke="#fff" stroke-miterlimit="10" stroke-width="2.72"/><rect x="154.6" y="80.35" width="103.48" height="51.18" fill="#fff"/><path d="M248.28,264.2l-2.43-4.98h-1.75v4.98h-2.43v-12.48h4.89c2.54,0,4.05,1.73,4.05,3.82,0,1.75-1.07,2.84-2.28,3.28l2.79,5.38h-2.83ZM246.38,253.89h-2.3v3.29h2.3c1.07,0,1.77-.68,1.77-1.65s-.7-1.65-1.77-1.65h0Z" fill="#fff" stroke="#fff" stroke-miterlimit="10" stroke-width=".34"/><rect x="154.5" y="149.81" width="52.26" height="51.18" fill="#fff"/><path d="M103.27,152.88h107.1v48.11h-58.99c-26.55,0-48.11-21.56-48.11-48.11h0Z" fill="#fff"/><polygon points="103.27 153.9 154.84 153.9 154.84 134.51 103.1 134.51 103.27 153.9" fill="#fff"/><path d="M206.24,200.46h51.74v14.8c0,.56-.46,1.02-1.02,1.02h-49.7c-.56,0-1.02-.46-1.02-1.02v-14.8h0Z" fill="#fff"/><path d="M206.24,149.82h0c28.56,0,51.74,23.18,51.74,51.74v14.9h-51.74v-66.64h0Z" fill="#fff"/><path d="M155.1,160.89h0c-.11-6.07-5.16-10.95-11.23-10.85h0c6.07-.11,10.95-5.16,10.85-11.23h0c.11,6.07,1.93,10.34,9.75,11.02h1.36c-6.92,3.23-10.84,4.99-10.73,11.07Z" fill="#fff"/><path d="M206.26,211.84h0c-.11-6.07-5.16-10.95-11.23-10.85h0c6.07-.11,10.95-5.16,10.85-11.23h0c.11,6.07,5.16,10.95,11.23,10.85h0c-6.07.11-10.95,5.16-10.85,11.23Z" fill="#fff"/></svg>