<?xml version="1.0" encoding="UTF-8"?><svg id="a" xmlns="http://www.w3.org/2000/svg" width="885.6" height="1116" viewBox="0 0 885.6 1116"><rect x="294.3" width="590" height="292" rx="5.83" ry="5.83"/><rect x="2.3" y="824" width="590" height="292" rx="5.83" ry="5.83"/><path d="M885.5,705c0-161.27-130.73-292-292-292h-238.63c1.51-.14,3.02-.24,4.56-.26h0c-34.65.6-63.5-27.25-64.1-61.9h0c.02,1.1,0,2.2-.03,3.29v-23.3c0-3.22-2.61-5.83-5.83-5.83H.3v88H.1c0,161.27,130.73,292,292,292h236.69c-.77.04-1.54.09-2.32.1h0c33.1-.58,60.88,24.82,63.83,57.29v23.78c0,3.22,2.61,5.83,5.83,5.83h283.34c3.22,0,5.83-2.61,5.83-5.83v-81.17h.2Z"/><circle cx="825.51" cy="1020.96" r="58.5" stroke="#fff" stroke-miterlimit="10" stroke-width="5"/><path d="M806.49,989.09h23.98c5.11,0,9.29,1.39,12.52,4.17,3.89,3.16,5.92,7.66,6.08,13.51-.11,8.61-4.06,14.46-11.85,17.56l14.2,28.12h-11.04l-12.7-27.08h-11.9v27.08h-9.29v-63.36h0ZM815.78,1016.87h14.09c3.49-.06,6.1-1.1,7.85-3.14,1.72-1.89,2.57-4.21,2.57-6.97-.06-3.31-1.08-5.71-3.08-7.19-1.58-1.31-3.85-1.96-6.84-1.96h-14.6v19.26h.01Z" fill="#fff"/></svg>